<svg xmlns="http://www.w3.org/2000/svg" width="14.938" height="14.94" viewBox="0 0 14.938 14.94">
  <defs>
    <style>
      .cls-1 {
        fill: #c2cfd7;
        fill-rule: evenodd;
      }
    </style>
  </defs>
  <path id="Dribble" class="cls-1" d="M965.1,2944.23a7.47,7.47,0,0,0-1.125-2.67,7.933,7.933,0,0,0-.91-1.1,7.034,7.034,0,0,0-1.105-.91,6.91,6.91,0,0,0-1.27-.69,7.4,7.4,0,0,0-5.814,0,7.553,7.553,0,0,0-2.376,1.6,8.078,8.078,0,0,0-.91,1.1,7.518,7.518,0,0,0-1.125,2.67,7.733,7.733,0,0,0-.151,1.51,7.557,7.557,0,0,0,.151,1.5,7.452,7.452,0,0,0,.437,1.41,7.573,7.573,0,0,0,.688,1.27,8.078,8.078,0,0,0,.91,1.1,7.553,7.553,0,0,0,2.376,1.6,7.562,7.562,0,0,0,5.814,0,7.533,7.533,0,0,0,2.375-1.6,7.933,7.933,0,0,0,.91-1.1,7.579,7.579,0,0,0,.689-1.27,7.487,7.487,0,0,0,.587-2.91A7.657,7.657,0,0,0,965.1,2944.23Zm-0.941,1.44a15.134,15.134,0,0,0-4.442-.2c-0.045-.11-0.092-0.22-0.138-0.33-0.133-.32-0.276-0.62-0.424-0.93a8.323,8.323,0,0,0,3.554-2.52A6.327,6.327,0,0,1,964.156,2945.67Zm-2.163-4.72a6.9,6.9,0,0,1-3.332,2.31,33,33,0,0,0-2.384-3.72,6.217,6.217,0,0,1,1.5-.18A6.351,6.351,0,0,1,961.993,2940.95Zm-5.741-1.41v0.01h-0.02A0.026,0.026,0,0,0,956.252,2939.54Zm-1.193.43a37.4,37.4,0,0,1,2.367,3.68,23.16,23.16,0,0,1-5.889.77A6.4,6.4,0,0,1,955.059,2939.97Zm-3.658,5.77c0-.07,0-0.14,0-0.2a23.63,23.63,0,0,0,6.548-.91c0.184,0.36.359,0.72,0.519,1.08-0.085.03-.168,0.05-0.252,0.08a10.068,10.068,0,0,0-5.187,4.21h0A6.345,6.345,0,0,1,951.4,2945.74Zm6.379,6.38a6.368,6.368,0,0,1-4.063-1.46c0.083,0.06.142,0.11,0.142,0.11a8.648,8.648,0,0,1,5.006-3.99c0.015,0,.028-0.01.042-0.01a26.124,26.124,0,0,1,1.361,4.84A6.25,6.25,0,0,1,957.78,2952.12Zm3.564-1.09a27.645,27.645,0,0,0-1.241-4.56,9.283,9.283,0,0,1,3.975.28A6.385,6.385,0,0,1,961.344,2951.03Z" transform="translate(-950.312 -2938.28)"/>
</svg>
