<svg xmlns="http://www.w3.org/2000/svg" width="15.061" height="13.5" viewBox="0 0 15.061 13.5">
  <defs>
    <style>
      .cls-1 {
        fill: #c2cfd7;
        fill-rule: evenodd;
      }
    </style>
  </defs>
  <path id="Google_" data-name="Google " class="cls-1" d="M1002.21,2943.23h-2.268v-2.27a0.313,0.313,0,0,0-.314-0.31h-0.647a0.312,0.312,0,0,0-.313.31v2.27H996.4a0.315,0.315,0,0,0-.316.31v0.65a0.315,0.315,0,0,0,.316.31h2.269v2.28a0.312,0.312,0,0,0,.313.31h0.647a0.313,0.313,0,0,0,.314-0.31v-2.28h2.268a0.32,0.32,0,0,0,.32-0.31v-0.65A0.32,0.32,0,0,0,1002.21,2943.23Zm-7.625,1.99a2.615,2.615,0,0,1-.919-0.99,1.009,1.009,0,0,1,.646-0.89,2.981,2.981,0,0,0,1.248-2.33,3.116,3.116,0,0,0-.657-2h0.321a0.384,0.384,0,0,0,.185-0.05l0.894-.65a0.316,0.316,0,0,0-.185-0.57h-3.992a4.05,4.05,0,0,0-1.317.23,3.426,3.426,0,0,0-2.472,3.01,3.219,3.219,0,0,0,3.264,3.22,1.594,1.594,0,0,0-.055.42,1.54,1.54,0,0,0,.215.79h-0.052a4.359,4.359,0,0,0-3.995,2.18,2.334,2.334,0,0,0-.239,1.01,1.868,1.868,0,0,0,.249.94,3.531,3.531,0,0,0,2.319,1.5,7.248,7.248,0,0,0,1.832.22,5.758,5.758,0,0,0,1.632-.22,3.259,3.259,0,0,0,2.606-2.97A3.091,3.091,0,0,0,994.585,2945.22Zm-5.042,2.95c0-.93,1.19-1.76,2.55-1.76h0.037a3.438,3.438,0,0,1,.856.13c0.1,0.07.183,0.13,0.271,0.19a2.394,2.394,0,0,1,1.16,1.16,1.473,1.473,0,0,1,.041.34c0,1.17-.871,1.76-2.592,1.76A2.088,2.088,0,0,1,989.543,2948.17Zm1.235-8.87a1.054,1.054,0,0,1,.8-0.37h0.035a2.365,2.365,0,0,1,1.882,2.2,2.132,2.132,0,0,1-.394,1.66,1.052,1.052,0,0,1-.812.37h-0.016a2.424,2.424,0,0,1-1.882-2.23A2.077,2.077,0,0,1,990.778,2939.3Z" transform="translate(-987.469 -2937.75)"/>
</svg>
