<svg xmlns="http://www.w3.org/2000/svg" width="14.906" height="12.1" viewBox="0 0 14.906 12.1">
  <defs>
    <style>
      .cls-1 {
        fill: #c2cfd7;
        fill-rule: evenodd;
      }
    </style>
  </defs>
  <path id="Tweeter" class="cls-1" d="M933.739,2941.55a5.76,5.76,0,0,1-1.753.48,3.017,3.017,0,0,0,1.343-1.69,6.217,6.217,0,0,1-1.939.75,3.052,3.052,0,0,0-5.283,2.09,3.113,3.113,0,0,0,.079.69,8.635,8.635,0,0,1-6.294-3.19,3.059,3.059,0,0,0,.945,4.08,3.084,3.084,0,0,1-1.383-.39v0.04a3.061,3.061,0,0,0,2.45,3,3.068,3.068,0,0,1-.806.11,2.718,2.718,0,0,1-.573-0.06,3.051,3.051,0,0,0,2.851,2.12,6.12,6.12,0,0,1-3.791,1.31c-0.248,0-.49-0.02-0.73-0.04a8.688,8.688,0,0,0,13.371-7.32c0-.13,0-0.26-0.011-0.4A6.077,6.077,0,0,0,933.739,2941.55Z" transform="translate(-918.844 -2940.12)"/>
</svg>
