<svg xmlns="http://www.w3.org/2000/svg" width="14.82" height="14.5" viewBox="0 0 14.82 14.5">
  <defs>
    <style>
      .cls-1 {
        fill: #c2cfd7;
        fill-rule: evenodd;
      }
    </style>
  </defs>
  <path id="Youtube" class="cls-1" d="M1034.2,2944.16h-9.4a2.7,2.7,0,0,0-2.71,2.7v2.18a2.712,2.712,0,0,0,2.71,2.71h9.4a2.712,2.712,0,0,0,2.71-2.71v-2.18A2.7,2.7,0,0,0,1034.2,2944.16Zm-7.43,1.69h-0.87v4.35h-0.84v-4.35h-0.88v-0.74h2.59v0.74Zm2.47,4.35h-0.74v-0.41a1.684,1.684,0,0,1-.44.34,0.9,0.9,0,0,1-.43.12,0.428,0.428,0,0,1-.39-0.17,0.765,0.765,0,0,1-.14-0.5v-3.14h0.75v2.88a0.289,0.289,0,0,0,.05.19,0.181,0.181,0,0,0,.15.07,0.426,0.426,0,0,0,.21-0.08,0.955,0.955,0,0,0,.24-0.21v-2.85h0.74v3.76Zm2.72-.78a0.906,0.906,0,0,1-.17.61,0.635,0.635,0,0,1-.51.21,0.8,0.8,0,0,1-.39-0.08,0.848,0.848,0,0,1-.32-0.25v0.29h-0.76v-5.09h0.76v1.64a1.111,1.111,0,0,1,.32-0.26,0.721,0.721,0,0,1,.34-0.09,0.664,0.664,0,0,1,.55.24,1.147,1.147,0,0,1,.18.7v2.08Zm2.6-1.01h-1.43v0.71a0.811,0.811,0,0,0,.07.41,0.3,0.3,0,0,0,.26.11,0.3,0.3,0,0,0,.26-0.1,0.76,0.76,0,0,0,.07-0.42v-0.17h0.77v0.19a1.215,1.215,0,0,1-.28.87,1.125,1.125,0,0,1-.84.29,1,1,0,0,1-.79-0.31,1.2,1.2,0,0,1-.29-0.85v-1.69a1.019,1.019,0,0,1,.32-0.79,1.093,1.093,0,0,1,.81-0.31,1.074,1.074,0,0,1,.8.29,1.132,1.132,0,0,1,.27.81v0.96Zm-1.1-1.4a0.292,0.292,0,0,0-.25.1,0.585,0.585,0,0,0-.08.34v0.38h0.66v-0.38a0.517,0.517,0,0,0-.08-0.34A0.28,0.28,0,0,0,1033.46,2947.01Zm-2.58-.01a0.453,0.453,0,0,0-.16.03,0.527,0.527,0,0,0-.15.12v2.33a0.957,0.957,0,0,0,.17.14,0.585,0.585,0,0,0,.19.04,0.263,0.263,0,0,0,.2-0.08,0.454,0.454,0,0,0,.06-0.26v-1.94a0.418,0.418,0,0,0-.08-0.29A0.287,0.287,0,0,0,1030.88,2947Zm-4.85-4.15h0.95v-2.32l1.11-3.28h-0.97l-0.59,2.24h-0.06l-0.61-2.24h-0.96l1.13,3.39v2.21Zm3.34,0.11a1.3,1.3,0,0,0,.91-0.3,1.078,1.078,0,0,0,.32-0.83v-2.14a1,1,0,0,0-.33-0.77,1.235,1.235,0,0,0-.86-0.3,1.357,1.357,0,0,0-.91.28,0.947,0.947,0,0,0-.34.77v2.14a1.107,1.107,0,0,0,.33.84A1.257,1.257,0,0,0,1029.37,2942.96Zm-0.35-3.32a0.287,0.287,0,0,1,.1-0.22,0.349,0.349,0,0,1,.25-0.09,0.4,0.4,0,0,1,.27.09,0.257,0.257,0,0,1,.1.22v2.25a0.339,0.339,0,0,1-.1.26,0.367,0.367,0,0,1-.27.09,0.315,0.315,0,0,1-.35-0.35v-2.25Zm2.86,3.27a1.028,1.028,0,0,0,.49-0.13,1.674,1.674,0,0,0,.48-0.38v0.45h0.85v-4.13h-0.85v3.14a1.086,1.086,0,0,1-.26.22,0.451,0.451,0,0,1-.23.09,0.183,0.183,0,0,1-.17-0.07,0.293,0.293,0,0,1-.06-0.21v-3.17h-0.84v3.45a0.871,0.871,0,0,0,.15.56A0.531,0.531,0,0,0,1031.88,2942.91Z" transform="translate(-1022.09 -2937.25)"/>
</svg>
